<mxfile host="x0I">
  <diagram id="2S0" name="Style-Plain">
    <mxGraphModel dx="0" dy="0" background="#FFFACD" grid="0" gridSize="10" guides="1" tooltips="1" connect="1" arrows="1" fold="1" page="1" pageScale="1" pageWidth="1169" pageHeight="827" math="0" shadow="0">
      <root>
        <mxCell id="page_root_2S0" parent="2S0"/>
        <mxCell id="node_root_2S0" parent="page_root_2S0"/>
        <mxCell id="2S0-2" value="h1" style="whiteSpace=wrap;html=1;fontColor=#333333;text;fontSize=89;fontColor=#ffffff;fontStyle=1;fillColor=none" vertex="1" parent="node_root_2S0">
          <mxGeometry x="60" y="85" width="100" height="50" as="geometry"/>
        </mxCell>
        <mxCell id="2S0-3" value="h2" style="whiteSpace=wrap;html=1;fontColor=#333333;text;fontSize=67;fontColor=#ffffff;fontStyle=1;fillColor=none" vertex="1" parent="node_root_2S0">
          <mxGeometry x="280" y="85" width="100" height="50" as="geometry"/>
        </mxCell>
        <mxCell id="2S0-4" value="h3" style="whiteSpace=wrap;html=1;fontColor=#333333;text;fontSize=50;fontColor=#ffffff;fontStyle=1;fillColor=none" vertex="1" parent="node_root_2S0">
          <mxGeometry x="500" y="85" width="100" height="50" as="geometry"/>
        </mxCell>
        <mxCell id="2S0-5" value="h4" style="whiteSpace=wrap;html=1;fontColor=#333333;text;fontSize=37;fontColor=#ffffff;fontStyle=1;fillColor=none" vertex="1" parent="node_root_2S0">
          <mxGeometry x="720" y="85" width="100" height="50" as="geometry"/>
        </mxCell>
        <mxCell id="2S0-6" value="h5" style="whiteSpace=wrap;html=1;fontColor=#333333;text;fontSize=28;fontColor=#ffffff;fontStyle=1;fillColor=none" vertex="1" parent="node_root_2S0">
          <mxGeometry x="940" y="85" width="100" height="50" as="geometry"/>
        </mxCell>
        <mxCell id="2S0-7" value="h6" style="whiteSpace=wrap;html=1;fontColor=#333333;text;fontSize=21;fontColor=#ffffff;fontStyle=1;fillColor=none" vertex="1" parent="node_root_2S0">
          <mxGeometry x="60" y="305" width="100" height="50" as="geometry"/>
        </mxCell>
        <mxCell id="2S0-8" value="p" style="whiteSpace=wrap;html=1;fontColor=#333333;text;fontSize=16;fontColor=#ffffff;fontStyle=1;fillColor=none" vertex="1" parent="node_root_2S0">
          <mxGeometry x="280" y="305" width="100" height="50" as="geometry"/>
        </mxCell>
        <mxCell id="2S0-9" value="actor" style="whiteSpace=wrap;html=1;fillColor=#f8cecc;strokeColor=#b85450;fontColor=#333333;shape=actor" vertex="1" parent="node_root_2S0">
          <mxGeometry x="530" y="305" width="40" height="50" as="geometry"/>
        </mxCell>
        <mxCell id="2S0-10" value="actor2" style="whiteSpace=wrap;html=1;fillColor=#f8cecc;strokeColor=#b85450;fontColor=#333333;shape=umlActor;verticalLabelPosition=bottom;outlineConnect=1" vertex="1" parent="node_root_2S0">
          <mxGeometry x="755" y="305" width="30" height="50" as="geometry"/>
        </mxCell>
        <mxCell id="2S0-11" value="callout" style="whiteSpace=wrap;html=1;fillColor=#f8cecc;strokeColor=#b85450;fontColor=#333333;shape=callout" vertex="1" parent="node_root_2S0">
          <mxGeometry x="910" y="270" width="160" height="120" as="geometry"/>
        </mxCell>
        <mxCell id="2S0-12" value="callout2" style="whiteSpace=wrap;html=1;fillColor=#f8cecc;strokeColor=#b85450;fontColor=#333333;shape=mxgraph.basic.oval_callout" vertex="1" parent="node_root_2S0">
          <mxGeometry x="30" y="470" width="160" height="160" as="geometry"/>
        </mxCell>
        <mxCell id="2S0-13" value="callout3" style="whiteSpace=wrap;html=1;fillColor=#f8cecc;strokeColor=#b85450;fontColor=#333333;shape=mxgraph.basic.cloud_callout" vertex="1" parent="node_root_2S0">
          <mxGeometry x="250" y="470" width="160" height="160" as="geometry"/>
        </mxCell>
        <mxCell id="2S0-14" value="callout4" style="whiteSpace=wrap;html=1;fillColor=#f8cecc;strokeColor=#b85450;fontColor=#333333;shape=mxgraph.basic.roundRectCallout;dx=30;dy=15;size=5;boundedLbl=1;" vertex="1" parent="node_root_2S0">
          <mxGeometry x="470" y="490" width="160" height="120" as="geometry"/>
        </mxCell>
        <mxCell id="2S0-15" value="circle" style="whiteSpace=wrap;html=1;fillColor=#f8cecc;strokeColor=#b85450;fontColor=#333333;ellipse" vertex="1" parent="node_root_2S0">
          <mxGeometry x="690" y="470" width="160" height="160" as="geometry"/>
        </mxCell>
        <mxCell id="2S0-16" value="cloud" style="whiteSpace=wrap;html=1;fillColor=#f8cecc;strokeColor=#b85450;fontColor=#333333;shape=cloud" vertex="1" parent="node_root_2S0">
          <mxGeometry x="910" y="470" width="160" height="160" as="geometry"/>
        </mxCell>
        <mxCell id="2S0-17" value="cross" style="whiteSpace=wrap;html=1;fillColor=#f8cecc;strokeColor=#b85450;fontColor=#333333;verticalLabelPosition=bottom;verticalAlign=top;html=1;shape=mxgraph.basic.x" vertex="1" parent="node_root_2S0">
          <mxGeometry x="85" y="745" width="50" height="50" as="geometry"/>
        </mxCell>
        <mxCell id="2S0-18" value="envelop" style="whiteSpace=wrap;html=1;fillColor=#f8cecc;strokeColor=#b85450;fontColor=#333333;shape=message" vertex="1" parent="node_root_2S0">
          <mxGeometry x="250" y="720" width="160" height="100" as="geometry"/>
        </mxCell>
        <mxCell id="2S0-19" value="diamond" style="whiteSpace=wrap;html=1;fillColor=#f8cecc;strokeColor=#b85450;fontColor=#333333;rhombus" vertex="1" parent="node_root_2S0">
          <mxGeometry x="500" y="720" width="100" height="100" as="geometry"/>
        </mxCell>
        <mxCell id="2S0-20" value="document" style="whiteSpace=wrap;html=1;fillColor=#f8cecc;strokeColor=#b85450;fontColor=#333333;shape=mxgraph.basic.document" vertex="1" parent="node_root_2S0">
          <mxGeometry x="690" y="690" width="160" height="160" as="geometry"/>
        </mxCell>
        <mxCell id="2S0-21" value="ellipse" style="whiteSpace=wrap;html=1;fillColor=#f8cecc;strokeColor=#b85450;fontColor=#333333;ellipse" vertex="1" parent="node_root_2S0">
          <mxGeometry x="890" y="710" width="200" height="120" as="geometry"/>
        </mxCell>
        <mxCell id="2S0-22" value="hexagon" style="whiteSpace=wrap;html=1;fillColor=#f8cecc;strokeColor=#b85450;fontColor=#333333;shape=hexagon" vertex="1" parent="node_root_2S0">
          <mxGeometry x="10" y="930" width="200" height="120" as="geometry"/>
        </mxCell>
        <mxCell id="2S0-23" value="container" style="whiteSpace=wrap;html=1;fillColor=#f8cecc;strokeColor=#b85450;fontColor=#333333;swimlane" vertex="1" parent="node_root_2S0">
          <mxGeometry x="250" y="910" width="160" height="160" as="geometry"/>
        </mxCell>
        <mxCell id="2S0-24" value="container2" style="whiteSpace=wrap;html=1;fillColor=#f8cecc;strokeColor=#b85450;fontColor=#333333;swimlane;horizontal=0" vertex="1" parent="node_root_2S0">
          <mxGeometry x="470" y="910" width="160" height="160" as="geometry"/>
        </mxCell>
        <mxCell id="2S0-25" value="container3" style="whiteSpace=wrap;html=1;fillColor=#f8cecc;strokeColor=#b85450;fontColor=#333333;swimlane;startSize=50" vertex="1" parent="node_root_2S0">
          <mxGeometry x="690" y="910" width="160" height="160" as="geometry"/>
        </mxCell>
        <mxCell id="2S0-26" value="container4" style="whiteSpace=wrap;html=1;fillColor=#f8cecc;strokeColor=#b85450;fontColor=#333333;swimlane;resizable=0" vertex="1" parent="node_root_2S0">
          <mxGeometry x="910" y="910" width="160" height="160" as="geometry"/>
        </mxCell>
        <mxCell id="2S0-27" value="note" style="whiteSpace=wrap;html=1;fillColor=#f8cecc;strokeColor=#b85450;fontColor=#333333;shape=note" vertex="1" parent="node_root_2S0">
          <mxGeometry x="30" y="1130" width="160" height="160" as="geometry"/>
        </mxCell>
        <mxCell id="2S0-28" value="process" style="whiteSpace=wrap;html=1;fillColor=#f8cecc;strokeColor=#b85450;fontColor=#333333;shape=process" vertex="1" parent="node_root_2S0">
          <mxGeometry x="230" y="1150" width="200" height="120" as="geometry"/>
        </mxCell>
        <mxCell id="2S0-29" value="rectangle" style="whiteSpace=wrap;html=1;fillColor=#f8cecc;strokeColor=#b85450;fontColor=#333333" vertex="1" parent="node_root_2S0">
          <mxGeometry x="450" y="1150" width="200" height="120" as="geometry"/>
        </mxCell>
        <mxCell id="2S0-30" value="rectangle2" style="whiteSpace=wrap;html=1;fillColor=#f8cecc;strokeColor=#b85450;fontColor=#333333;shape=mxgraph.basic.cloud_rect" vertex="1" parent="node_root_2S0">
          <mxGeometry x="670" y="1150" width="200" height="120" as="geometry"/>
        </mxCell>
        <mxCell id="2S0-31" value="square" style="whiteSpace=wrap;html=1;fillColor=#f8cecc;strokeColor=#b85450;fontColor=#333333" vertex="1" parent="node_root_2S0">
          <mxGeometry x="910" y="1130" width="160" height="160" as="geometry"/>
        </mxCell>
        <mxCell id="2S0-32" value="step" style="whiteSpace=wrap;html=1;fillColor=#f8cecc;strokeColor=#b85450;fontColor=#333333;shape=step;perimeter=stepPerimeter;fixedSize=1" vertex="1" parent="node_root_2S0">
          <mxGeometry x="50" y="1390" width="120" height="80" as="geometry"/>
        </mxCell>
        <mxCell id="2S0-33" value="tick" style="whiteSpace=wrap;html=1;fillColor=#f8cecc;strokeColor=#b85450;fontColor=#333333;verticalLabelPosition=bottom;verticalAlign=top;shape=mxgraph.basic.tick" vertex="1" parent="node_root_2S0">
          <mxGeometry x="305" y="1405" width="50" height="50" as="geometry"/>
        </mxCell>
        <mxCell id="2S0-34" value="face" style="whiteSpace=wrap;html=1;fillColor=#f8cecc;strokeColor=#b85450;fontColor=#333333;verticalLabelPosition=bottom;verticalAlign=top;shape=mxgraph.basic.smiley" vertex="1" parent="node_root_2S0">
          <mxGeometry x="500" y="1380" width="100" height="100" as="geometry"/>
        </mxCell>
        <mxCell id="2S0-35" value="triangle" style="whiteSpace=wrap;html=1;fillColor=#f8cecc;strokeColor=#b85450;fontColor=#333333;triangle" vertex="1" parent="node_root_2S0">
          <mxGeometry x="720" y="1380" width="100" height="100" as="geometry"/>
        </mxCell>
        <mxCell id="2S0-36" value="embed_row" style="whiteSpace=wrap;html=1;fillColor=#f8cecc;strokeColor=#b85450;fontColor=#333333;shape=partialRectangle;collapsible=0;dropTarget=0;pointerEvents=0;top=0;left=0;bottom=1;right=0;points=[[0,0.5],[1,0.5]];portConstraint=eastwest" vertex="1" parent="node_root_2S0">
          <mxGeometry x="890" y="1410" width="200" height="40" as="geometry"/>
        </mxCell>
        <mxCell id="2S0-37" value="embed_col50" style="whiteSpace=wrap;html=1;fillColor=#f8cecc;strokeColor=#b85450;fontColor=#333333;shape=partialRectangle;connectable=0;top=0;left=0;bottom=0;right=0;fontStyle=1;overflow=hidden" vertex="1" parent="node_root_2S0">
          <mxGeometry x="85" y="1630" width="50" height="40" as="geometry"/>
        </mxCell>
        <mxCell id="2S0-38" value="embed_col200" style="whiteSpace=wrap;html=1;fillColor=#f8cecc;strokeColor=#b85450;fontColor=#333333;shape=partialRectangle;connectable=0;top=0;left=0;bottom=0;right=0;align=left;spacingLeft=6;overflow=hidden" vertex="1" parent="node_root_2S0">
          <mxGeometry x="255" y="1630" width="150" height="40" as="geometry"/>
        </mxCell>
      </root>
    </mxGraphModel>
  </diagram>
  <diagram id="THs" name="Style-Shadow">
    <mxGraphModel dx="0" dy="0" background="#FFFACD" grid="0" gridSize="10" guides="1" tooltips="1" connect="1" arrows="1" fold="1" page="1" pageScale="1" pageWidth="1169" pageHeight="827" math="0" shadow="0">
      <root>
        <mxCell id="page_root_THs" parent="THs"/>
        <mxCell id="node_root_THs" parent="page_root_THs"/>
        <mxCell id="THs-2" value="h1" style="whiteSpace=wrap;html=1;shadow=1;fontColor=#333333;text;fontSize=89;fontColor=#ffffff;fontStyle=1;fillColor=none" vertex="1" parent="node_root_THs">
          <mxGeometry x="60" y="85" width="100" height="50" as="geometry"/>
        </mxCell>
        <mxCell id="THs-3" value="h2" style="whiteSpace=wrap;html=1;shadow=1;fontColor=#333333;text;fontSize=67;fontColor=#ffffff;fontStyle=1;fillColor=none" vertex="1" parent="node_root_THs">
          <mxGeometry x="280" y="85" width="100" height="50" as="geometry"/>
        </mxCell>
        <mxCell id="THs-4" value="h3" style="whiteSpace=wrap;html=1;shadow=1;fontColor=#333333;text;fontSize=50;fontColor=#ffffff;fontStyle=1;fillColor=none" vertex="1" parent="node_root_THs">
          <mxGeometry x="500" y="85" width="100" height="50" as="geometry"/>
        </mxCell>
        <mxCell id="THs-5" value="h4" style="whiteSpace=wrap;html=1;shadow=1;fontColor=#333333;text;fontSize=37;fontColor=#ffffff;fontStyle=1;fillColor=none" vertex="1" parent="node_root_THs">
          <mxGeometry x="720" y="85" width="100" height="50" as="geometry"/>
        </mxCell>
        <mxCell id="THs-6" value="h5" style="whiteSpace=wrap;html=1;shadow=1;fontColor=#333333;text;fontSize=28;fontColor=#ffffff;fontStyle=1;fillColor=none" vertex="1" parent="node_root_THs">
          <mxGeometry x="940" y="85" width="100" height="50" as="geometry"/>
        </mxCell>
        <mxCell id="THs-7" value="h6" style="whiteSpace=wrap;html=1;shadow=1;fontColor=#333333;text;fontSize=21;fontColor=#ffffff;fontStyle=1;fillColor=none" vertex="1" parent="node_root_THs">
          <mxGeometry x="60" y="305" width="100" height="50" as="geometry"/>
        </mxCell>
        <mxCell id="THs-8" value="p" style="whiteSpace=wrap;html=1;shadow=1;fontColor=#333333;text;fontSize=16;fontColor=#ffffff;fontStyle=1;fillColor=none" vertex="1" parent="node_root_THs">
          <mxGeometry x="280" y="305" width="100" height="50" as="geometry"/>
        </mxCell>
        <mxCell id="THs-9" value="actor" style="whiteSpace=wrap;html=1;shadow=1;fillColor=#f8cecc;strokeColor=#b85450;fontColor=#333333;shape=actor" vertex="1" parent="node_root_THs">
          <mxGeometry x="530" y="305" width="40" height="50" as="geometry"/>
        </mxCell>
        <mxCell id="THs-10" value="actor2" style="whiteSpace=wrap;html=1;shadow=1;fillColor=#f8cecc;strokeColor=#b85450;fontColor=#333333;shape=umlActor;verticalLabelPosition=bottom;outlineConnect=1" vertex="1" parent="node_root_THs">
          <mxGeometry x="755" y="305" width="30" height="50" as="geometry"/>
        </mxCell>
        <mxCell id="THs-11" value="callout" style="whiteSpace=wrap;html=1;shadow=1;fillColor=#f8cecc;strokeColor=#b85450;fontColor=#333333;shape=callout" vertex="1" parent="node_root_THs">
          <mxGeometry x="910" y="270" width="160" height="120" as="geometry"/>
        </mxCell>
        <mxCell id="THs-12" value="callout2" style="whiteSpace=wrap;html=1;shadow=1;fillColor=#f8cecc;strokeColor=#b85450;fontColor=#333333;shape=mxgraph.basic.oval_callout" vertex="1" parent="node_root_THs">
          <mxGeometry x="30" y="470" width="160" height="160" as="geometry"/>
        </mxCell>
        <mxCell id="THs-13" value="callout3" style="whiteSpace=wrap;html=1;shadow=1;fillColor=#f8cecc;strokeColor=#b85450;fontColor=#333333;shape=mxgraph.basic.cloud_callout" vertex="1" parent="node_root_THs">
          <mxGeometry x="250" y="470" width="160" height="160" as="geometry"/>
        </mxCell>
        <mxCell id="THs-14" value="callout4" style="whiteSpace=wrap;html=1;shadow=1;fillColor=#f8cecc;strokeColor=#b85450;fontColor=#333333;shape=mxgraph.basic.roundRectCallout;dx=30;dy=15;size=5;boundedLbl=1;" vertex="1" parent="node_root_THs">
          <mxGeometry x="470" y="490" width="160" height="120" as="geometry"/>
        </mxCell>
        <mxCell id="THs-15" value="circle" style="whiteSpace=wrap;html=1;shadow=1;fillColor=#f8cecc;strokeColor=#b85450;fontColor=#333333;ellipse" vertex="1" parent="node_root_THs">
          <mxGeometry x="690" y="470" width="160" height="160" as="geometry"/>
        </mxCell>
        <mxCell id="THs-16" value="cloud" style="whiteSpace=wrap;html=1;shadow=1;fillColor=#f8cecc;strokeColor=#b85450;fontColor=#333333;shape=cloud" vertex="1" parent="node_root_THs">
          <mxGeometry x="910" y="470" width="160" height="160" as="geometry"/>
        </mxCell>
        <mxCell id="THs-17" value="cross" style="whiteSpace=wrap;html=1;shadow=1;fillColor=#f8cecc;strokeColor=#b85450;fontColor=#333333;verticalLabelPosition=bottom;verticalAlign=top;html=1;shape=mxgraph.basic.x" vertex="1" parent="node_root_THs">
          <mxGeometry x="85" y="745" width="50" height="50" as="geometry"/>
        </mxCell>
        <mxCell id="THs-18" value="envelop" style="whiteSpace=wrap;html=1;shadow=1;fillColor=#f8cecc;strokeColor=#b85450;fontColor=#333333;shape=message" vertex="1" parent="node_root_THs">
          <mxGeometry x="250" y="720" width="160" height="100" as="geometry"/>
        </mxCell>
        <mxCell id="THs-19" value="diamond" style="whiteSpace=wrap;html=1;shadow=1;fillColor=#f8cecc;strokeColor=#b85450;fontColor=#333333;rhombus" vertex="1" parent="node_root_THs">
          <mxGeometry x="500" y="720" width="100" height="100" as="geometry"/>
        </mxCell>
        <mxCell id="THs-20" value="document" style="whiteSpace=wrap;html=1;shadow=1;fillColor=#f8cecc;strokeColor=#b85450;fontColor=#333333;shape=mxgraph.basic.document" vertex="1" parent="node_root_THs">
          <mxGeometry x="690" y="690" width="160" height="160" as="geometry"/>
        </mxCell>
        <mxCell id="THs-21" value="ellipse" style="whiteSpace=wrap;html=1;shadow=1;fillColor=#f8cecc;strokeColor=#b85450;fontColor=#333333;ellipse" vertex="1" parent="node_root_THs">
          <mxGeometry x="890" y="710" width="200" height="120" as="geometry"/>
        </mxCell>
        <mxCell id="THs-22" value="hexagon" style="whiteSpace=wrap;html=1;shadow=1;fillColor=#f8cecc;strokeColor=#b85450;fontColor=#333333;shape=hexagon" vertex="1" parent="node_root_THs">
          <mxGeometry x="10" y="930" width="200" height="120" as="geometry"/>
        </mxCell>
        <mxCell id="THs-23" value="container" style="whiteSpace=wrap;html=1;shadow=1;fillColor=#f8cecc;strokeColor=#b85450;fontColor=#333333;swimlane" vertex="1" parent="node_root_THs">
          <mxGeometry x="250" y="910" width="160" height="160" as="geometry"/>
        </mxCell>
        <mxCell id="THs-24" value="container2" style="whiteSpace=wrap;html=1;shadow=1;fillColor=#f8cecc;strokeColor=#b85450;fontColor=#333333;swimlane;horizontal=0" vertex="1" parent="node_root_THs">
          <mxGeometry x="470" y="910" width="160" height="160" as="geometry"/>
        </mxCell>
        <mxCell id="THs-25" value="container3" style="whiteSpace=wrap;html=1;shadow=1;fillColor=#f8cecc;strokeColor=#b85450;fontColor=#333333;swimlane;startSize=50" vertex="1" parent="node_root_THs">
          <mxGeometry x="690" y="910" width="160" height="160" as="geometry"/>
        </mxCell>
        <mxCell id="THs-26" value="container4" style="whiteSpace=wrap;html=1;shadow=1;fillColor=#f8cecc;strokeColor=#b85450;fontColor=#333333;swimlane;resizable=0" vertex="1" parent="node_root_THs">
          <mxGeometry x="910" y="910" width="160" height="160" as="geometry"/>
        </mxCell>
        <mxCell id="THs-27" value="note" style="whiteSpace=wrap;html=1;shadow=1;fillColor=#f8cecc;strokeColor=#b85450;fontColor=#333333;shape=note" vertex="1" parent="node_root_THs">
          <mxGeometry x="30" y="1130" width="160" height="160" as="geometry"/>
        </mxCell>
        <mxCell id="THs-28" value="process" style="whiteSpace=wrap;html=1;shadow=1;fillColor=#f8cecc;strokeColor=#b85450;fontColor=#333333;shape=process" vertex="1" parent="node_root_THs">
          <mxGeometry x="230" y="1150" width="200" height="120" as="geometry"/>
        </mxCell>
        <mxCell id="THs-29" value="rectangle" style="whiteSpace=wrap;html=1;shadow=1;fillColor=#f8cecc;strokeColor=#b85450;fontColor=#333333" vertex="1" parent="node_root_THs">
          <mxGeometry x="450" y="1150" width="200" height="120" as="geometry"/>
        </mxCell>
        <mxCell id="THs-30" value="rectangle2" style="whiteSpace=wrap;html=1;shadow=1;fillColor=#f8cecc;strokeColor=#b85450;fontColor=#333333;shape=mxgraph.basic.cloud_rect" vertex="1" parent="node_root_THs">
          <mxGeometry x="670" y="1150" width="200" height="120" as="geometry"/>
        </mxCell>
        <mxCell id="THs-31" value="square" style="whiteSpace=wrap;html=1;shadow=1;fillColor=#f8cecc;strokeColor=#b85450;fontColor=#333333" vertex="1" parent="node_root_THs">
          <mxGeometry x="910" y="1130" width="160" height="160" as="geometry"/>
        </mxCell>
        <mxCell id="THs-32" value="step" style="whiteSpace=wrap;html=1;shadow=1;fillColor=#f8cecc;strokeColor=#b85450;fontColor=#333333;shape=step;perimeter=stepPerimeter;fixedSize=1" vertex="1" parent="node_root_THs">
          <mxGeometry x="50" y="1390" width="120" height="80" as="geometry"/>
        </mxCell>
        <mxCell id="THs-33" value="tick" style="whiteSpace=wrap;html=1;shadow=1;fillColor=#f8cecc;strokeColor=#b85450;fontColor=#333333;verticalLabelPosition=bottom;verticalAlign=top;shape=mxgraph.basic.tick" vertex="1" parent="node_root_THs">
          <mxGeometry x="305" y="1405" width="50" height="50" as="geometry"/>
        </mxCell>
        <mxCell id="THs-34" value="face" style="whiteSpace=wrap;html=1;shadow=1;fillColor=#f8cecc;strokeColor=#b85450;fontColor=#333333;verticalLabelPosition=bottom;verticalAlign=top;shape=mxgraph.basic.smiley" vertex="1" parent="node_root_THs">
          <mxGeometry x="500" y="1380" width="100" height="100" as="geometry"/>
        </mxCell>
        <mxCell id="THs-35" value="triangle" style="whiteSpace=wrap;html=1;shadow=1;fillColor=#f8cecc;strokeColor=#b85450;fontColor=#333333;triangle" vertex="1" parent="node_root_THs">
          <mxGeometry x="720" y="1380" width="100" height="100" as="geometry"/>
        </mxCell>
        <mxCell id="THs-36" value="embed_row" style="whiteSpace=wrap;html=1;shadow=1;fillColor=#f8cecc;strokeColor=#b85450;fontColor=#333333;shape=partialRectangle;collapsible=0;dropTarget=0;pointerEvents=0;top=0;left=0;bottom=1;right=0;points=[[0,0.5],[1,0.5]];portConstraint=eastwest" vertex="1" parent="node_root_THs">
          <mxGeometry x="890" y="1410" width="200" height="40" as="geometry"/>
        </mxCell>
        <mxCell id="THs-37" value="embed_col50" style="whiteSpace=wrap;html=1;shadow=1;fillColor=#f8cecc;strokeColor=#b85450;fontColor=#333333;shape=partialRectangle;connectable=0;top=0;left=0;bottom=0;right=0;fontStyle=1;overflow=hidden" vertex="1" parent="node_root_THs">
          <mxGeometry x="85" y="1630" width="50" height="40" as="geometry"/>
        </mxCell>
        <mxCell id="THs-38" value="embed_col200" style="whiteSpace=wrap;html=1;shadow=1;fillColor=#f8cecc;strokeColor=#b85450;fontColor=#333333;shape=partialRectangle;connectable=0;top=0;left=0;bottom=0;right=0;align=left;spacingLeft=6;overflow=hidden" vertex="1" parent="node_root_THs">
          <mxGeometry x="255" y="1630" width="150" height="40" as="geometry"/>
        </mxCell>
      </root>
    </mxGraphModel>
  </diagram>
  <diagram id="PPx" name="Style-Rounded">
    <mxGraphModel dx="0" dy="0" background="#FFFACD" grid="0" gridSize="10" guides="1" tooltips="1" connect="1" arrows="1" fold="1" page="1" pageScale="1" pageWidth="1169" pageHeight="827" math="0" shadow="0">
      <root>
        <mxCell id="page_root_PPx" parent="PPx"/>
        <mxCell id="node_root_PPx" parent="page_root_PPx"/>
        <mxCell id="PPx-2" value="h1" style="whiteSpace=wrap;html=1;rounded=1;fontColor=#333333;text;fontSize=89;fontColor=#ffffff;fontStyle=1;fillColor=none" vertex="1" parent="node_root_PPx">
          <mxGeometry x="60" y="85" width="100" height="50" as="geometry"/>
        </mxCell>
        <mxCell id="PPx-3" value="h2" style="whiteSpace=wrap;html=1;rounded=1;fontColor=#333333;text;fontSize=67;fontColor=#ffffff;fontStyle=1;fillColor=none" vertex="1" parent="node_root_PPx">
          <mxGeometry x="280" y="85" width="100" height="50" as="geometry"/>
        </mxCell>
        <mxCell id="PPx-4" value="h3" style="whiteSpace=wrap;html=1;rounded=1;fontColor=#333333;text;fontSize=50;fontColor=#ffffff;fontStyle=1;fillColor=none" vertex="1" parent="node_root_PPx">
          <mxGeometry x="500" y="85" width="100" height="50" as="geometry"/>
        </mxCell>
        <mxCell id="PPx-5" value="h4" style="whiteSpace=wrap;html=1;rounded=1;fontColor=#333333;text;fontSize=37;fontColor=#ffffff;fontStyle=1;fillColor=none" vertex="1" parent="node_root_PPx">
          <mxGeometry x="720" y="85" width="100" height="50" as="geometry"/>
        </mxCell>
        <mxCell id="PPx-6" value="h5" style="whiteSpace=wrap;html=1;rounded=1;fontColor=#333333;text;fontSize=28;fontColor=#ffffff;fontStyle=1;fillColor=none" vertex="1" parent="node_root_PPx">
          <mxGeometry x="940" y="85" width="100" height="50" as="geometry"/>
        </mxCell>
        <mxCell id="PPx-7" value="h6" style="whiteSpace=wrap;html=1;rounded=1;fontColor=#333333;text;fontSize=21;fontColor=#ffffff;fontStyle=1;fillColor=none" vertex="1" parent="node_root_PPx">
          <mxGeometry x="60" y="305" width="100" height="50" as="geometry"/>
        </mxCell>
        <mxCell id="PPx-8" value="p" style="whiteSpace=wrap;html=1;rounded=1;fontColor=#333333;text;fontSize=16;fontColor=#ffffff;fontStyle=1;fillColor=none" vertex="1" parent="node_root_PPx">
          <mxGeometry x="280" y="305" width="100" height="50" as="geometry"/>
        </mxCell>
        <mxCell id="PPx-9" value="actor" style="whiteSpace=wrap;html=1;rounded=1;fillColor=#f8cecc;strokeColor=#b85450;fontColor=#333333;shape=actor" vertex="1" parent="node_root_PPx">
          <mxGeometry x="530" y="305" width="40" height="50" as="geometry"/>
        </mxCell>
        <mxCell id="PPx-10" value="actor2" style="whiteSpace=wrap;html=1;rounded=1;fillColor=#f8cecc;strokeColor=#b85450;fontColor=#333333;shape=umlActor;verticalLabelPosition=bottom;outlineConnect=1" vertex="1" parent="node_root_PPx">
          <mxGeometry x="755" y="305" width="30" height="50" as="geometry"/>
        </mxCell>
        <mxCell id="PPx-11" value="callout" style="whiteSpace=wrap;html=1;rounded=1;fillColor=#f8cecc;strokeColor=#b85450;fontColor=#333333;shape=callout" vertex="1" parent="node_root_PPx">
          <mxGeometry x="910" y="270" width="160" height="120" as="geometry"/>
        </mxCell>
        <mxCell id="PPx-12" value="callout2" style="whiteSpace=wrap;html=1;rounded=1;fillColor=#f8cecc;strokeColor=#b85450;fontColor=#333333;shape=mxgraph.basic.oval_callout" vertex="1" parent="node_root_PPx">
          <mxGeometry x="30" y="470" width="160" height="160" as="geometry"/>
        </mxCell>
        <mxCell id="PPx-13" value="callout3" style="whiteSpace=wrap;html=1;rounded=1;fillColor=#f8cecc;strokeColor=#b85450;fontColor=#333333;shape=mxgraph.basic.cloud_callout" vertex="1" parent="node_root_PPx">
          <mxGeometry x="250" y="470" width="160" height="160" as="geometry"/>
        </mxCell>
        <mxCell id="PPx-14" value="callout4" style="whiteSpace=wrap;html=1;rounded=1;fillColor=#f8cecc;strokeColor=#b85450;fontColor=#333333;shape=mxgraph.basic.roundRectCallout;dx=30;dy=15;size=5;boundedLbl=1;" vertex="1" parent="node_root_PPx">
          <mxGeometry x="470" y="490" width="160" height="120" as="geometry"/>
        </mxCell>
        <mxCell id="PPx-15" value="circle" style="whiteSpace=wrap;html=1;rounded=1;fillColor=#f8cecc;strokeColor=#b85450;fontColor=#333333;ellipse" vertex="1" parent="node_root_PPx">
          <mxGeometry x="690" y="470" width="160" height="160" as="geometry"/>
        </mxCell>
        <mxCell id="PPx-16" value="cloud" style="whiteSpace=wrap;html=1;rounded=1;fillColor=#f8cecc;strokeColor=#b85450;fontColor=#333333;shape=cloud" vertex="1" parent="node_root_PPx">
          <mxGeometry x="910" y="470" width="160" height="160" as="geometry"/>
        </mxCell>
        <mxCell id="PPx-17" value="cross" style="whiteSpace=wrap;html=1;rounded=1;fillColor=#f8cecc;strokeColor=#b85450;fontColor=#333333;verticalLabelPosition=bottom;verticalAlign=top;html=1;shape=mxgraph.basic.x" vertex="1" parent="node_root_PPx">
          <mxGeometry x="85" y="745" width="50" height="50" as="geometry"/>
        </mxCell>
        <mxCell id="PPx-18" value="envelop" style="whiteSpace=wrap;html=1;rounded=1;fillColor=#f8cecc;strokeColor=#b85450;fontColor=#333333;shape=message" vertex="1" parent="node_root_PPx">
          <mxGeometry x="250" y="720" width="160" height="100" as="geometry"/>
        </mxCell>
        <mxCell id="PPx-19" value="diamond" style="whiteSpace=wrap;html=1;rounded=1;fillColor=#f8cecc;strokeColor=#b85450;fontColor=#333333;rhombus" vertex="1" parent="node_root_PPx">
          <mxGeometry x="500" y="720" width="100" height="100" as="geometry"/>
        </mxCell>
        <mxCell id="PPx-20" value="document" style="whiteSpace=wrap;html=1;rounded=1;fillColor=#f8cecc;strokeColor=#b85450;fontColor=#333333;shape=mxgraph.basic.document" vertex="1" parent="node_root_PPx">
          <mxGeometry x="690" y="690" width="160" height="160" as="geometry"/>
        </mxCell>
        <mxCell id="PPx-21" value="ellipse" style="whiteSpace=wrap;html=1;rounded=1;fillColor=#f8cecc;strokeColor=#b85450;fontColor=#333333;ellipse" vertex="1" parent="node_root_PPx">
          <mxGeometry x="890" y="710" width="200" height="120" as="geometry"/>
        </mxCell>
        <mxCell id="PPx-22" value="hexagon" style="whiteSpace=wrap;html=1;rounded=1;fillColor=#f8cecc;strokeColor=#b85450;fontColor=#333333;shape=hexagon" vertex="1" parent="node_root_PPx">
          <mxGeometry x="10" y="930" width="200" height="120" as="geometry"/>
        </mxCell>
        <mxCell id="PPx-23" value="container" style="whiteSpace=wrap;html=1;rounded=1;fillColor=#f8cecc;strokeColor=#b85450;fontColor=#333333;swimlane" vertex="1" parent="node_root_PPx">
          <mxGeometry x="250" y="910" width="160" height="160" as="geometry"/>
        </mxCell>
        <mxCell id="PPx-24" value="container2" style="whiteSpace=wrap;html=1;rounded=1;fillColor=#f8cecc;strokeColor=#b85450;fontColor=#333333;swimlane;horizontal=0" vertex="1" parent="node_root_PPx">
          <mxGeometry x="470" y="910" width="160" height="160" as="geometry"/>
        </mxCell>
        <mxCell id="PPx-25" value="container3" style="whiteSpace=wrap;html=1;rounded=1;fillColor=#f8cecc;strokeColor=#b85450;fontColor=#333333;swimlane;startSize=50" vertex="1" parent="node_root_PPx">
          <mxGeometry x="690" y="910" width="160" height="160" as="geometry"/>
        </mxCell>
        <mxCell id="PPx-26" value="container4" style="whiteSpace=wrap;html=1;rounded=1;fillColor=#f8cecc;strokeColor=#b85450;fontColor=#333333;swimlane;resizable=0" vertex="1" parent="node_root_PPx">
          <mxGeometry x="910" y="910" width="160" height="160" as="geometry"/>
        </mxCell>
        <mxCell id="PPx-27" value="note" style="whiteSpace=wrap;html=1;rounded=1;fillColor=#f8cecc;strokeColor=#b85450;fontColor=#333333;shape=note" vertex="1" parent="node_root_PPx">
          <mxGeometry x="30" y="1130" width="160" height="160" as="geometry"/>
        </mxCell>
        <mxCell id="PPx-28" value="process" style="whiteSpace=wrap;html=1;rounded=1;fillColor=#f8cecc;strokeColor=#b85450;fontColor=#333333;shape=process" vertex="1" parent="node_root_PPx">
          <mxGeometry x="230" y="1150" width="200" height="120" as="geometry"/>
        </mxCell>
        <mxCell id="PPx-29" value="rectangle" style="whiteSpace=wrap;html=1;rounded=1;fillColor=#f8cecc;strokeColor=#b85450;fontColor=#333333" vertex="1" parent="node_root_PPx">
          <mxGeometry x="450" y="1150" width="200" height="120" as="geometry"/>
        </mxCell>
        <mxCell id="PPx-30" value="rectangle2" style="whiteSpace=wrap;html=1;rounded=1;fillColor=#f8cecc;strokeColor=#b85450;fontColor=#333333;shape=mxgraph.basic.cloud_rect" vertex="1" parent="node_root_PPx">
          <mxGeometry x="670" y="1150" width="200" height="120" as="geometry"/>
        </mxCell>
        <mxCell id="PPx-31" value="square" style="whiteSpace=wrap;html=1;rounded=1;fillColor=#f8cecc;strokeColor=#b85450;fontColor=#333333" vertex="1" parent="node_root_PPx">
          <mxGeometry x="910" y="1130" width="160" height="160" as="geometry"/>
        </mxCell>
        <mxCell id="PPx-32" value="step" style="whiteSpace=wrap;html=1;rounded=1;fillColor=#f8cecc;strokeColor=#b85450;fontColor=#333333;shape=step;perimeter=stepPerimeter;fixedSize=1" vertex="1" parent="node_root_PPx">
          <mxGeometry x="50" y="1390" width="120" height="80" as="geometry"/>
        </mxCell>
        <mxCell id="PPx-33" value="tick" style="whiteSpace=wrap;html=1;rounded=1;fillColor=#f8cecc;strokeColor=#b85450;fontColor=#333333;verticalLabelPosition=bottom;verticalAlign=top;shape=mxgraph.basic.tick" vertex="1" parent="node_root_PPx">
          <mxGeometry x="305" y="1405" width="50" height="50" as="geometry"/>
        </mxCell>
        <mxCell id="PPx-34" value="face" style="whiteSpace=wrap;html=1;rounded=1;fillColor=#f8cecc;strokeColor=#b85450;fontColor=#333333;verticalLabelPosition=bottom;verticalAlign=top;shape=mxgraph.basic.smiley" vertex="1" parent="node_root_PPx">
          <mxGeometry x="500" y="1380" width="100" height="100" as="geometry"/>
        </mxCell>
        <mxCell id="PPx-35" value="triangle" style="whiteSpace=wrap;html=1;rounded=1;fillColor=#f8cecc;strokeColor=#b85450;fontColor=#333333;triangle" vertex="1" parent="node_root_PPx">
          <mxGeometry x="720" y="1380" width="100" height="100" as="geometry"/>
        </mxCell>
        <mxCell id="PPx-36" value="embed_row" style="whiteSpace=wrap;html=1;rounded=1;fillColor=#f8cecc;strokeColor=#b85450;fontColor=#333333;shape=partialRectangle;collapsible=0;dropTarget=0;pointerEvents=0;top=0;left=0;bottom=1;right=0;points=[[0,0.5],[1,0.5]];portConstraint=eastwest" vertex="1" parent="node_root_PPx">
          <mxGeometry x="890" y="1410" width="200" height="40" as="geometry"/>
        </mxCell>
        <mxCell id="PPx-37" value="embed_col50" style="whiteSpace=wrap;html=1;rounded=1;fillColor=#f8cecc;strokeColor=#b85450;fontColor=#333333;shape=partialRectangle;connectable=0;top=0;left=0;bottom=0;right=0;fontStyle=1;overflow=hidden" vertex="1" parent="node_root_PPx">
          <mxGeometry x="85" y="1630" width="50" height="40" as="geometry"/>
        </mxCell>
        <mxCell id="PPx-38" value="embed_col200" style="whiteSpace=wrap;html=1;rounded=1;fillColor=#f8cecc;strokeColor=#b85450;fontColor=#333333;shape=partialRectangle;connectable=0;top=0;left=0;bottom=0;right=0;align=left;spacingLeft=6;overflow=hidden" vertex="1" parent="node_root_PPx">
          <mxGeometry x="255" y="1630" width="150" height="40" as="geometry"/>
        </mxCell>
      </root>
    </mxGraphModel>
  </diagram>
  <diagram id="RpY" name="Style-Glass">
    <mxGraphModel dx="0" dy="0" background="#FFFACD" grid="0" gridSize="10" guides="1" tooltips="1" connect="1" arrows="1" fold="1" page="1" pageScale="1" pageWidth="1169" pageHeight="827" math="0" shadow="0">
      <root>
        <mxCell id="page_root_RpY" parent="RpY"/>
        <mxCell id="node_root_RpY" parent="page_root_RpY"/>
        <mxCell id="RpY-2" value="h1" style="whiteSpace=wrap;html=1;glass=1;fontColor=#333333;text;fontSize=89;fontColor=#ffffff;fontStyle=1;fillColor=none" vertex="1" parent="node_root_RpY">
          <mxGeometry x="60" y="85" width="100" height="50" as="geometry"/>
        </mxCell>
        <mxCell id="RpY-3" value="h2" style="whiteSpace=wrap;html=1;glass=1;fontColor=#333333;text;fontSize=67;fontColor=#ffffff;fontStyle=1;fillColor=none" vertex="1" parent="node_root_RpY">
          <mxGeometry x="280" y="85" width="100" height="50" as="geometry"/>
        </mxCell>
        <mxCell id="RpY-4" value="h3" style="whiteSpace=wrap;html=1;glass=1;fontColor=#333333;text;fontSize=50;fontColor=#ffffff;fontStyle=1;fillColor=none" vertex="1" parent="node_root_RpY">
          <mxGeometry x="500" y="85" width="100" height="50" as="geometry"/>
        </mxCell>
        <mxCell id="RpY-5" value="h4" style="whiteSpace=wrap;html=1;glass=1;fontColor=#333333;text;fontSize=37;fontColor=#ffffff;fontStyle=1;fillColor=none" vertex="1" parent="node_root_RpY">
          <mxGeometry x="720" y="85" width="100" height="50" as="geometry"/>
        </mxCell>
        <mxCell id="RpY-6" value="h5" style="whiteSpace=wrap;html=1;glass=1;fontColor=#333333;text;fontSize=28;fontColor=#ffffff;fontStyle=1;fillColor=none" vertex="1" parent="node_root_RpY">
          <mxGeometry x="940" y="85" width="100" height="50" as="geometry"/>
        </mxCell>
        <mxCell id="RpY-7" value="h6" style="whiteSpace=wrap;html=1;glass=1;fontColor=#333333;text;fontSize=21;fontColor=#ffffff;fontStyle=1;fillColor=none" vertex="1" parent="node_root_RpY">
          <mxGeometry x="60" y="305" width="100" height="50" as="geometry"/>
        </mxCell>
        <mxCell id="RpY-8" value="p" style="whiteSpace=wrap;html=1;glass=1;fontColor=#333333;text;fontSize=16;fontColor=#ffffff;fontStyle=1;fillColor=none" vertex="1" parent="node_root_RpY">
          <mxGeometry x="280" y="305" width="100" height="50" as="geometry"/>
        </mxCell>
        <mxCell id="RpY-9" value="actor" style="whiteSpace=wrap;html=1;glass=1;fillColor=#f8cecc;strokeColor=#b85450;fontColor=#333333;shape=actor" vertex="1" parent="node_root_RpY">
          <mxGeometry x="530" y="305" width="40" height="50" as="geometry"/>
        </mxCell>
        <mxCell id="RpY-10" value="actor2" style="whiteSpace=wrap;html=1;glass=1;fillColor=#f8cecc;strokeColor=#b85450;fontColor=#333333;shape=umlActor;verticalLabelPosition=bottom;outlineConnect=1" vertex="1" parent="node_root_RpY">
          <mxGeometry x="755" y="305" width="30" height="50" as="geometry"/>
        </mxCell>
        <mxCell id="RpY-11" value="callout" style="whiteSpace=wrap;html=1;glass=1;fillColor=#f8cecc;strokeColor=#b85450;fontColor=#333333;shape=callout" vertex="1" parent="node_root_RpY">
          <mxGeometry x="910" y="270" width="160" height="120" as="geometry"/>
        </mxCell>
        <mxCell id="RpY-12" value="callout2" style="whiteSpace=wrap;html=1;glass=1;fillColor=#f8cecc;strokeColor=#b85450;fontColor=#333333;shape=mxgraph.basic.oval_callout" vertex="1" parent="node_root_RpY">
          <mxGeometry x="30" y="470" width="160" height="160" as="geometry"/>
        </mxCell>
        <mxCell id="RpY-13" value="callout3" style="whiteSpace=wrap;html=1;glass=1;fillColor=#f8cecc;strokeColor=#b85450;fontColor=#333333;shape=mxgraph.basic.cloud_callout" vertex="1" parent="node_root_RpY">
          <mxGeometry x="250" y="470" width="160" height="160" as="geometry"/>
        </mxCell>
        <mxCell id="RpY-14" value="callout4" style="whiteSpace=wrap;html=1;glass=1;fillColor=#f8cecc;strokeColor=#b85450;fontColor=#333333;shape=mxgraph.basic.roundRectCallout;dx=30;dy=15;size=5;boundedLbl=1;" vertex="1" parent="node_root_RpY">
          <mxGeometry x="470" y="490" width="160" height="120" as="geometry"/>
        </mxCell>
        <mxCell id="RpY-15" value="circle" style="whiteSpace=wrap;html=1;glass=1;fillColor=#f8cecc;strokeColor=#b85450;fontColor=#333333;ellipse" vertex="1" parent="node_root_RpY">
          <mxGeometry x="690" y="470" width="160" height="160" as="geometry"/>
        </mxCell>
        <mxCell id="RpY-16" value="cloud" style="whiteSpace=wrap;html=1;glass=1;fillColor=#f8cecc;strokeColor=#b85450;fontColor=#333333;shape=cloud" vertex="1" parent="node_root_RpY">
          <mxGeometry x="910" y="470" width="160" height="160" as="geometry"/>
        </mxCell>
        <mxCell id="RpY-17" value="cross" style="whiteSpace=wrap;html=1;glass=1;fillColor=#f8cecc;strokeColor=#b85450;fontColor=#333333;verticalLabelPosition=bottom;verticalAlign=top;html=1;shape=mxgraph.basic.x" vertex="1" parent="node_root_RpY">
          <mxGeometry x="85" y="745" width="50" height="50" as="geometry"/>
        </mxCell>
        <mxCell id="RpY-18" value="envelop" style="whiteSpace=wrap;html=1;glass=1;fillColor=#f8cecc;strokeColor=#b85450;fontColor=#333333;shape=message" vertex="1" parent="node_root_RpY">
          <mxGeometry x="250" y="720" width="160" height="100" as="geometry"/>
        </mxCell>
        <mxCell id="RpY-19" value="diamond" style="whiteSpace=wrap;html=1;glass=1;fillColor=#f8cecc;strokeColor=#b85450;fontColor=#333333;rhombus" vertex="1" parent="node_root_RpY">
          <mxGeometry x="500" y="720" width="100" height="100" as="geometry"/>
        </mxCell>
        <mxCell id="RpY-20" value="document" style="whiteSpace=wrap;html=1;glass=1;fillColor=#f8cecc;strokeColor=#b85450;fontColor=#333333;shape=mxgraph.basic.document" vertex="1" parent="node_root_RpY">
          <mxGeometry x="690" y="690" width="160" height="160" as="geometry"/>
        </mxCell>
        <mxCell id="RpY-21" value="ellipse" style="whiteSpace=wrap;html=1;glass=1;fillColor=#f8cecc;strokeColor=#b85450;fontColor=#333333;ellipse" vertex="1" parent="node_root_RpY">
          <mxGeometry x="890" y="710" width="200" height="120" as="geometry"/>
        </mxCell>
        <mxCell id="RpY-22" value="hexagon" style="whiteSpace=wrap;html=1;glass=1;fillColor=#f8cecc;strokeColor=#b85450;fontColor=#333333;shape=hexagon" vertex="1" parent="node_root_RpY">
          <mxGeometry x="10" y="930" width="200" height="120" as="geometry"/>
        </mxCell>
        <mxCell id="RpY-23" value="container" style="whiteSpace=wrap;html=1;glass=1;fillColor=#f8cecc;strokeColor=#b85450;fontColor=#333333;swimlane" vertex="1" parent="node_root_RpY">
          <mxGeometry x="250" y="910" width="160" height="160" as="geometry"/>
        </mxCell>
        <mxCell id="RpY-24" value="container2" style="whiteSpace=wrap;html=1;glass=1;fillColor=#f8cecc;strokeColor=#b85450;fontColor=#333333;swimlane;horizontal=0" vertex="1" parent="node_root_RpY">
          <mxGeometry x="470" y="910" width="160" height="160" as="geometry"/>
        </mxCell>
        <mxCell id="RpY-25" value="container3" style="whiteSpace=wrap;html=1;glass=1;fillColor=#f8cecc;strokeColor=#b85450;fontColor=#333333;swimlane;startSize=50" vertex="1" parent="node_root_RpY">
          <mxGeometry x="690" y="910" width="160" height="160" as="geometry"/>
        </mxCell>
        <mxCell id="RpY-26" value="container4" style="whiteSpace=wrap;html=1;glass=1;fillColor=#f8cecc;strokeColor=#b85450;fontColor=#333333;swimlane;resizable=0" vertex="1" parent="node_root_RpY">
          <mxGeometry x="910" y="910" width="160" height="160" as="geometry"/>
        </mxCell>
        <mxCell id="RpY-27" value="note" style="whiteSpace=wrap;html=1;glass=1;fillColor=#f8cecc;strokeColor=#b85450;fontColor=#333333;shape=note" vertex="1" parent="node_root_RpY">
          <mxGeometry x="30" y="1130" width="160" height="160" as="geometry"/>
        </mxCell>
        <mxCell id="RpY-28" value="process" style="whiteSpace=wrap;html=1;glass=1;fillColor=#f8cecc;strokeColor=#b85450;fontColor=#333333;shape=process" vertex="1" parent="node_root_RpY">
          <mxGeometry x="230" y="1150" width="200" height="120" as="geometry"/>
        </mxCell>
        <mxCell id="RpY-29" value="rectangle" style="whiteSpace=wrap;html=1;glass=1;fillColor=#f8cecc;strokeColor=#b85450;fontColor=#333333" vertex="1" parent="node_root_RpY">
          <mxGeometry x="450" y="1150" width="200" height="120" as="geometry"/>
        </mxCell>
        <mxCell id="RpY-30" value="rectangle2" style="whiteSpace=wrap;html=1;glass=1;fillColor=#f8cecc;strokeColor=#b85450;fontColor=#333333;shape=mxgraph.basic.cloud_rect" vertex="1" parent="node_root_RpY">
          <mxGeometry x="670" y="1150" width="200" height="120" as="geometry"/>
        </mxCell>
        <mxCell id="RpY-31" value="square" style="whiteSpace=wrap;html=1;glass=1;fillColor=#f8cecc;strokeColor=#b85450;fontColor=#333333" vertex="1" parent="node_root_RpY">
          <mxGeometry x="910" y="1130" width="160" height="160" as="geometry"/>
        </mxCell>
        <mxCell id="RpY-32" value="step" style="whiteSpace=wrap;html=1;glass=1;fillColor=#f8cecc;strokeColor=#b85450;fontColor=#333333;shape=step;perimeter=stepPerimeter;fixedSize=1" vertex="1" parent="node_root_RpY">
          <mxGeometry x="50" y="1390" width="120" height="80" as="geometry"/>
        </mxCell>
        <mxCell id="RpY-33" value="tick" style="whiteSpace=wrap;html=1;glass=1;fillColor=#f8cecc;strokeColor=#b85450;fontColor=#333333;verticalLabelPosition=bottom;verticalAlign=top;shape=mxgraph.basic.tick" vertex="1" parent="node_root_RpY">
          <mxGeometry x="305" y="1405" width="50" height="50" as="geometry"/>
        </mxCell>
        <mxCell id="RpY-34" value="face" style="whiteSpace=wrap;html=1;glass=1;fillColor=#f8cecc;strokeColor=#b85450;fontColor=#333333;verticalLabelPosition=bottom;verticalAlign=top;shape=mxgraph.basic.smiley" vertex="1" parent="node_root_RpY">
          <mxGeometry x="500" y="1380" width="100" height="100" as="geometry"/>
        </mxCell>
        <mxCell id="RpY-35" value="triangle" style="whiteSpace=wrap;html=1;glass=1;fillColor=#f8cecc;strokeColor=#b85450;fontColor=#333333;triangle" vertex="1" parent="node_root_RpY">
          <mxGeometry x="720" y="1380" width="100" height="100" as="geometry"/>
        </mxCell>
        <mxCell id="RpY-36" value="embed_row" style="whiteSpace=wrap;html=1;glass=1;fillColor=#f8cecc;strokeColor=#b85450;fontColor=#333333;shape=partialRectangle;collapsible=0;dropTarget=0;pointerEvents=0;top=0;left=0;bottom=1;right=0;points=[[0,0.5],[1,0.5]];portConstraint=eastwest" vertex="1" parent="node_root_RpY">
          <mxGeometry x="890" y="1410" width="200" height="40" as="geometry"/>
        </mxCell>
        <mxCell id="RpY-37" value="embed_col50" style="whiteSpace=wrap;html=1;glass=1;fillColor=#f8cecc;strokeColor=#b85450;fontColor=#333333;shape=partialRectangle;connectable=0;top=0;left=0;bottom=0;right=0;fontStyle=1;overflow=hidden" vertex="1" parent="node_root_RpY">
          <mxGeometry x="85" y="1630" width="50" height="40" as="geometry"/>
        </mxCell>
        <mxCell id="RpY-38" value="embed_col200" style="whiteSpace=wrap;html=1;glass=1;fillColor=#f8cecc;strokeColor=#b85450;fontColor=#333333;shape=partialRectangle;connectable=0;top=0;left=0;bottom=0;right=0;align=left;spacingLeft=6;overflow=hidden" vertex="1" parent="node_root_RpY">
          <mxGeometry x="255" y="1630" width="150" height="40" as="geometry"/>
        </mxCell>
      </root>
    </mxGraphModel>
  </diagram>
  <diagram id="lKb" name="Style-Sketch">
    <mxGraphModel dx="0" dy="0" background="#FFFACD" grid="0" gridSize="10" guides="1" tooltips="1" connect="1" arrows="1" fold="1" page="1" pageScale="1" pageWidth="1169" pageHeight="827" math="0" shadow="0">
      <root>
        <mxCell id="page_root_lKb" parent="lKb"/>
        <mxCell id="node_root_lKb" parent="page_root_lKb"/>
        <mxCell id="lKb-2" value="h1" style="whiteSpace=wrap;html=1;sketch=1;fontColor=#333333;text;fontSize=89;fontColor=#ffffff;fontStyle=1;fillColor=none" vertex="1" parent="node_root_lKb">
          <mxGeometry x="60" y="85" width="100" height="50" as="geometry"/>
        </mxCell>
        <mxCell id="lKb-3" value="h2" style="whiteSpace=wrap;html=1;sketch=1;fontColor=#333333;text;fontSize=67;fontColor=#ffffff;fontStyle=1;fillColor=none" vertex="1" parent="node_root_lKb">
          <mxGeometry x="280" y="85" width="100" height="50" as="geometry"/>
        </mxCell>
        <mxCell id="lKb-4" value="h3" style="whiteSpace=wrap;html=1;sketch=1;fontColor=#333333;text;fontSize=50;fontColor=#ffffff;fontStyle=1;fillColor=none" vertex="1" parent="node_root_lKb">
          <mxGeometry x="500" y="85" width="100" height="50" as="geometry"/>
        </mxCell>
        <mxCell id="lKb-5" value="h4" style="whiteSpace=wrap;html=1;sketch=1;fontColor=#333333;text;fontSize=37;fontColor=#ffffff;fontStyle=1;fillColor=none" vertex="1" parent="node_root_lKb">
          <mxGeometry x="720" y="85" width="100" height="50" as="geometry"/>
        </mxCell>
        <mxCell id="lKb-6" value="h5" style="whiteSpace=wrap;html=1;sketch=1;fontColor=#333333;text;fontSize=28;fontColor=#ffffff;fontStyle=1;fillColor=none" vertex="1" parent="node_root_lKb">
          <mxGeometry x="940" y="85" width="100" height="50" as="geometry"/>
        </mxCell>
        <mxCell id="lKb-7" value="h6" style="whiteSpace=wrap;html=1;sketch=1;fontColor=#333333;text;fontSize=21;fontColor=#ffffff;fontStyle=1;fillColor=none" vertex="1" parent="node_root_lKb">
          <mxGeometry x="60" y="305" width="100" height="50" as="geometry"/>
        </mxCell>
        <mxCell id="lKb-8" value="p" style="whiteSpace=wrap;html=1;sketch=1;fontColor=#333333;text;fontSize=16;fontColor=#ffffff;fontStyle=1;fillColor=none" vertex="1" parent="node_root_lKb">
          <mxGeometry x="280" y="305" width="100" height="50" as="geometry"/>
        </mxCell>
        <mxCell id="lKb-9" value="actor" style="whiteSpace=wrap;html=1;sketch=1;fillColor=#f8cecc;strokeColor=#b85450;fontColor=#333333;shape=actor" vertex="1" parent="node_root_lKb">
          <mxGeometry x="530" y="305" width="40" height="50" as="geometry"/>
        </mxCell>
        <mxCell id="lKb-10" value="actor2" style="whiteSpace=wrap;html=1;sketch=1;fillColor=#f8cecc;strokeColor=#b85450;fontColor=#333333;shape=umlActor;verticalLabelPosition=bottom;outlineConnect=1" vertex="1" parent="node_root_lKb">
          <mxGeometry x="755" y="305" width="30" height="50" as="geometry"/>
        </mxCell>
        <mxCell id="lKb-11" value="callout" style="whiteSpace=wrap;html=1;sketch=1;fillColor=#f8cecc;strokeColor=#b85450;fontColor=#333333;shape=callout" vertex="1" parent="node_root_lKb">
          <mxGeometry x="910" y="270" width="160" height="120" as="geometry"/>
        </mxCell>
        <mxCell id="lKb-12" value="callout2" style="whiteSpace=wrap;html=1;sketch=1;fillColor=#f8cecc;strokeColor=#b85450;fontColor=#333333;shape=mxgraph.basic.oval_callout" vertex="1" parent="node_root_lKb">
          <mxGeometry x="30" y="470" width="160" height="160" as="geometry"/>
        </mxCell>
        <mxCell id="lKb-13" value="callout3" style="whiteSpace=wrap;html=1;sketch=1;fillColor=#f8cecc;strokeColor=#b85450;fontColor=#333333;shape=mxgraph.basic.cloud_callout" vertex="1" parent="node_root_lKb">
          <mxGeometry x="250" y="470" width="160" height="160" as="geometry"/>
        </mxCell>
        <mxCell id="lKb-14" value="callout4" style="whiteSpace=wrap;html=1;sketch=1;fillColor=#f8cecc;strokeColor=#b85450;fontColor=#333333;shape=mxgraph.basic.roundRectCallout;dx=30;dy=15;size=5;boundedLbl=1;" vertex="1" parent="node_root_lKb">
          <mxGeometry x="470" y="490" width="160" height="120" as="geometry"/>
        </mxCell>
        <mxCell id="lKb-15" value="circle" style="whiteSpace=wrap;html=1;sketch=1;fillColor=#f8cecc;strokeColor=#b85450;fontColor=#333333;ellipse" vertex="1" parent="node_root_lKb">
          <mxGeometry x="690" y="470" width="160" height="160" as="geometry"/>
        </mxCell>
        <mxCell id="lKb-16" value="cloud" style="whiteSpace=wrap;html=1;sketch=1;fillColor=#f8cecc;strokeColor=#b85450;fontColor=#333333;shape=cloud" vertex="1" parent="node_root_lKb">
          <mxGeometry x="910" y="470" width="160" height="160" as="geometry"/>
        </mxCell>
        <mxCell id="lKb-17" value="cross" style="whiteSpace=wrap;html=1;sketch=1;fillColor=#f8cecc;strokeColor=#b85450;fontColor=#333333;verticalLabelPosition=bottom;verticalAlign=top;html=1;shape=mxgraph.basic.x" vertex="1" parent="node_root_lKb">
          <mxGeometry x="85" y="745" width="50" height="50" as="geometry"/>
        </mxCell>
        <mxCell id="lKb-18" value="envelop" style="whiteSpace=wrap;html=1;sketch=1;fillColor=#f8cecc;strokeColor=#b85450;fontColor=#333333;shape=message" vertex="1" parent="node_root_lKb">
          <mxGeometry x="250" y="720" width="160" height="100" as="geometry"/>
        </mxCell>
        <mxCell id="lKb-19" value="diamond" style="whiteSpace=wrap;html=1;sketch=1;fillColor=#f8cecc;strokeColor=#b85450;fontColor=#333333;rhombus" vertex="1" parent="node_root_lKb">
          <mxGeometry x="500" y="720" width="100" height="100" as="geometry"/>
        </mxCell>
        <mxCell id="lKb-20" value="document" style="whiteSpace=wrap;html=1;sketch=1;fillColor=#f8cecc;strokeColor=#b85450;fontColor=#333333;shape=mxgraph.basic.document" vertex="1" parent="node_root_lKb">
          <mxGeometry x="690" y="690" width="160" height="160" as="geometry"/>
        </mxCell>
        <mxCell id="lKb-21" value="ellipse" style="whiteSpace=wrap;html=1;sketch=1;fillColor=#f8cecc;strokeColor=#b85450;fontColor=#333333;ellipse" vertex="1" parent="node_root_lKb">
          <mxGeometry x="890" y="710" width="200" height="120" as="geometry"/>
        </mxCell>
        <mxCell id="lKb-22" value="hexagon" style="whiteSpace=wrap;html=1;sketch=1;fillColor=#f8cecc;strokeColor=#b85450;fontColor=#333333;shape=hexagon" vertex="1" parent="node_root_lKb">
          <mxGeometry x="10" y="930" width="200" height="120" as="geometry"/>
        </mxCell>
        <mxCell id="lKb-23" value="container" style="whiteSpace=wrap;html=1;sketch=1;fillColor=#f8cecc;strokeColor=#b85450;fontColor=#333333;swimlane" vertex="1" parent="node_root_lKb">
          <mxGeometry x="250" y="910" width="160" height="160" as="geometry"/>
        </mxCell>
        <mxCell id="lKb-24" value="container2" style="whiteSpace=wrap;html=1;sketch=1;fillColor=#f8cecc;strokeColor=#b85450;fontColor=#333333;swimlane;horizontal=0" vertex="1" parent="node_root_lKb">
          <mxGeometry x="470" y="910" width="160" height="160" as="geometry"/>
        </mxCell>
        <mxCell id="lKb-25" value="container3" style="whiteSpace=wrap;html=1;sketch=1;fillColor=#f8cecc;strokeColor=#b85450;fontColor=#333333;swimlane;startSize=50" vertex="1" parent="node_root_lKb">
          <mxGeometry x="690" y="910" width="160" height="160" as="geometry"/>
        </mxCell>
        <mxCell id="lKb-26" value="container4" style="whiteSpace=wrap;html=1;sketch=1;fillColor=#f8cecc;strokeColor=#b85450;fontColor=#333333;swimlane;resizable=0" vertex="1" parent="node_root_lKb">
          <mxGeometry x="910" y="910" width="160" height="160" as="geometry"/>
        </mxCell>
        <mxCell id="lKb-27" value="note" style="whiteSpace=wrap;html=1;sketch=1;fillColor=#f8cecc;strokeColor=#b85450;fontColor=#333333;shape=note" vertex="1" parent="node_root_lKb">
          <mxGeometry x="30" y="1130" width="160" height="160" as="geometry"/>
        </mxCell>
        <mxCell id="lKb-28" value="process" style="whiteSpace=wrap;html=1;sketch=1;fillColor=#f8cecc;strokeColor=#b85450;fontColor=#333333;shape=process" vertex="1" parent="node_root_lKb">
          <mxGeometry x="230" y="1150" width="200" height="120" as="geometry"/>
        </mxCell>
        <mxCell id="lKb-29" value="rectangle" style="whiteSpace=wrap;html=1;sketch=1;fillColor=#f8cecc;strokeColor=#b85450;fontColor=#333333" vertex="1" parent="node_root_lKb">
          <mxGeometry x="450" y="1150" width="200" height="120" as="geometry"/>
        </mxCell>
        <mxCell id="lKb-30" value="rectangle2" style="whiteSpace=wrap;html=1;sketch=1;fillColor=#f8cecc;strokeColor=#b85450;fontColor=#333333;shape=mxgraph.basic.cloud_rect" vertex="1" parent="node_root_lKb">
          <mxGeometry x="670" y="1150" width="200" height="120" as="geometry"/>
        </mxCell>
        <mxCell id="lKb-31" value="square" style="whiteSpace=wrap;html=1;sketch=1;fillColor=#f8cecc;strokeColor=#b85450;fontColor=#333333" vertex="1" parent="node_root_lKb">
          <mxGeometry x="910" y="1130" width="160" height="160" as="geometry"/>
        </mxCell>
        <mxCell id="lKb-32" value="step" style="whiteSpace=wrap;html=1;sketch=1;fillColor=#f8cecc;strokeColor=#b85450;fontColor=#333333;shape=step;perimeter=stepPerimeter;fixedSize=1" vertex="1" parent="node_root_lKb">
          <mxGeometry x="50" y="1390" width="120" height="80" as="geometry"/>
        </mxCell>
        <mxCell id="lKb-33" value="tick" style="whiteSpace=wrap;html=1;sketch=1;fillColor=#f8cecc;strokeColor=#b85450;fontColor=#333333;verticalLabelPosition=bottom;verticalAlign=top;shape=mxgraph.basic.tick" vertex="1" parent="node_root_lKb">
          <mxGeometry x="305" y="1405" width="50" height="50" as="geometry"/>
        </mxCell>
        <mxCell id="lKb-34" value="face" style="whiteSpace=wrap;html=1;sketch=1;fillColor=#f8cecc;strokeColor=#b85450;fontColor=#333333;verticalLabelPosition=bottom;verticalAlign=top;shape=mxgraph.basic.smiley" vertex="1" parent="node_root_lKb">
          <mxGeometry x="500" y="1380" width="100" height="100" as="geometry"/>
        </mxCell>
        <mxCell id="lKb-35" value="triangle" style="whiteSpace=wrap;html=1;sketch=1;fillColor=#f8cecc;strokeColor=#b85450;fontColor=#333333;triangle" vertex="1" parent="node_root_lKb">
          <mxGeometry x="720" y="1380" width="100" height="100" as="geometry"/>
        </mxCell>
        <mxCell id="lKb-36" value="embed_row" style="whiteSpace=wrap;html=1;sketch=1;fillColor=#f8cecc;strokeColor=#b85450;fontColor=#333333;shape=partialRectangle;collapsible=0;dropTarget=0;pointerEvents=0;top=0;left=0;bottom=1;right=0;points=[[0,0.5],[1,0.5]];portConstraint=eastwest" vertex="1" parent="node_root_lKb">
          <mxGeometry x="890" y="1410" width="200" height="40" as="geometry"/>
        </mxCell>
        <mxCell id="lKb-37" value="embed_col50" style="whiteSpace=wrap;html=1;sketch=1;fillColor=#f8cecc;strokeColor=#b85450;fontColor=#333333;shape=partialRectangle;connectable=0;top=0;left=0;bottom=0;right=0;fontStyle=1;overflow=hidden" vertex="1" parent="node_root_lKb">
          <mxGeometry x="85" y="1630" width="50" height="40" as="geometry"/>
        </mxCell>
        <mxCell id="lKb-38" value="embed_col200" style="whiteSpace=wrap;html=1;sketch=1;fillColor=#f8cecc;strokeColor=#b85450;fontColor=#333333;shape=partialRectangle;connectable=0;top=0;left=0;bottom=0;right=0;align=left;spacingLeft=6;overflow=hidden" vertex="1" parent="node_root_lKb">
          <mxGeometry x="255" y="1630" width="150" height="40" as="geometry"/>
        </mxCell>
      </root>
    </mxGraphModel>
  </diagram>
</mxfile>